<svg width="1288" height="815" viewBox="0 0 1288 815" fill="none" xmlns="http://www.w3.org/2000/svg">
<path d="M901.436 0.5H628.4C626.372 0.500013 624.4 1.14889 622.771 2.34668L622.451 2.59375L516.244 87.9141C514.38 89.4118 512.059 90.2285 509.668 90.2285H10C4.7533 90.2285 0.5 94.4818 0.5 99.7285V805C0.5 810.247 4.75329 814.5 10 814.5H1278C1283.25 814.5 1287.5 810.247 1287.5 805V99.7285C1287.5 94.4818 1283.25 90.2285 1278 90.2285H1013.96C1011.46 90.2285 1009.05 89.3373 1007.15 87.7158L907.602 2.77344C905.882 1.30623 903.696 0.500083 901.436 0.5Z" fill="#212121" stroke="white"/>
</svg>
