<svg width="1288" height="815" viewBox="0 0 1288 815" fill="none" xmlns="http://www.w3.org/2000/svg">
<path d="M1163.9 0.5H917.633C915.276 0.500115 913.009 1.37621 911.268 2.94824L910.926 3.27246L826.78 87.1641C824.812 89.1262 822.146 90.2284 819.367 90.2285H10C4.7533 90.2285 0.5 94.4818 0.5 99.7285V805C0.5 810.247 4.75329 814.5 10 814.5H1278C1283.25 814.5 1287.5 810.247 1287.5 805V99.7285C1287.5 94.4818 1283.25 90.2285 1278 90.2285H1263.1C1260.34 90.2284 1257.69 89.1422 1255.73 87.2051L1170.57 3.23535C1168.9 1.59225 1166.69 0.626187 1164.37 0.511719L1163.9 0.5Z" fill="#212121" stroke="white"/>
</svg>
