<svg width="893" height="563" viewBox="0 0 893 563" fill="none" xmlns="http://www.w3.org/2000/svg">
<path d="M642.033 0.5H503.177C500.796 0.5 498.509 1.39343 496.762 2.99316L496.42 3.32227L442.792 57.585C440.819 59.5809 438.129 60.7041 435.323 60.7041H10C4.7533 60.7041 0.500002 64.9574 0.5 70.2041V553C0.5 558.247 4.75329 562.5 10 562.5H883C888.247 562.5 892.5 558.247 892.5 553V70.2041C892.5 64.9574 888.247 60.7041 883 60.7041H704.913C701.929 60.704 699.085 59.4336 697.094 57.2109L649.108 3.66016C647.306 1.64912 644.734 0.5 642.033 0.5Z" fill="#212121" stroke="white"/>
</svg>
