<svg width="396" height="589" viewBox="0 0 396 589" fill="none" xmlns="http://www.w3.org/2000/svg">
<path d="M1.0159 1.00049L2.01561 1.57617V1.57617C35.8945 21.967 57.81 57.4932 60.8313 96.9195L61.8073 109.655C64.3825 143.26 85.8916 172.456 117.223 184.876L122.556 186.99C156.063 200.272 194.166 193.952 221.591 170.563L235.478 158.72C268.082 130.915 316.273 131.684 347.974 160.515L358.951 170.498C389.037 197.862 399.985 240.488 386.809 278.963L383.894 287.473C375.548 311.843 375.577 338.302 383.977 362.654L386.862 371.017C411.347 442.003 376.071 519.748 306.525 548.068L209.504 587.577" stroke="#B8B8B8" stroke-width="2"/>
</svg>
